<?xml version="1.0" encoding="UTF-8" standalone="no"?>
<!-- Created with Inkscape (http://www.inkscape.org/) -->

<svg
   width="48mm"
   height="12mm"
   viewBox="0 0 48 12"
   version="1.1"
   id="svg1"
   sodipodi:docname="mvhdebugmenulogo.svg"
   inkscape:version="1.3.2 (091e20e, 2023-11-25, custom)"
   xmlns:inkscape="http://www.inkscape.org/namespaces/inkscape"
   xmlns:sodipodi="http://sodipodi.sourceforge.net/DTD/sodipodi-0.dtd"
   xmlns="http://www.w3.org/2000/svg"
   xmlns:svg="http://www.w3.org/2000/svg">
  <sodipodi:namedview
     id="namedview1"
     pagecolor="#505050"
     bordercolor="#ffffff"
     borderopacity="1"
     inkscape:showpageshadow="false"
     inkscape:pageopacity="0"
     inkscape:pagecheckerboard="1"
     inkscape:deskcolor="#4f4f4f"
     inkscape:document-units="mm"
     labelstyle="default"
     borderlayer="true"
     inkscape:zoom="5.6568543"
     inkscape:cx="82.112775"
     inkscape:cy="22.539029"
     inkscape:window-width="2880"
     inkscape:window-height="1526"
     inkscape:window-x="5749"
     inkscape:window-y="1609"
     inkscape:window-maximized="1"
     inkscape:current-layer="layer1" />
  <defs
     id="defs1" />
  <g
     inkscape:label="Layer 1"
     inkscape:groupmode="layer"
     id="layer1">
    <rect
       style="display:none;fill:#ff00ff;stroke:none;stroke-width:0;stroke-dasharray:none"
       id="rect2"
       width="43.200001"
       height="10.8"
       x="2.4000001"
       y="0.60000002"
       inkscape:label="TextBox" />
    <rect
       style="fill:none;stroke:#000000;stroke-width:0.295371;stroke-dasharray:none;image-rendering:auto;stroke-opacity:1"
       id="rect1"
       width="47.704628"
       height="11.704629"
       x="0.14768593"
       y="0.14768593"
       ry="1.9507715"
       rx="1.987693"
       inkscape:label="BorderRound" />
    <path
       style="font-weight:bold;font-size:15.126px;stroke-width:0"
       d="M 6.9680521,11.399964 4.36638,2.9294041 H 4.305876 q 0.015126,0.30252 0.045378,0.90756 0.030252,0.60504 0.060504,1.3008361 0.030252,0.68067 0.030252,1.240332 V 11.399964 H 2.4 V 0.60000004 H 5.515956 L 8.0722501,8.8587963 h 0.045378 L 10.825182,0.60000004 h 3.115956 V 11.399964 H 11.808372 V 6.2873762 q 0,-0.514284 0.01513,-1.179828 0.03025,-0.6655441 0.04538,-1.2554581 0.03025,-0.60504 0.04538,-0.90756 h -0.0605 L 9.0705661,11.399964 Z M 25.13439,0.60000004 21.458772,11.399964 h -2.49579 L 15.30249,0.60000004 h 2.314278 l 2.026884,6.42855016 q 0.0605,0.166386 0.166386,0.620166 0.121008,0.438654 0.242016,0.9378121 0.121008,0.484032 0.166386,0.816804 0.04538,-0.332772 0.15126,-0.816804 0.121008,-0.4991581 0.242016,-0.9378121 0.121008,-0.45378 0.166386,-0.620166 l 2.04201,-6.42855016 z M 35.344436,11.399964 H 33.06041 V 6.7411562 H 28.779752 V 11.399964 H 26.495726 V 0.60000004 h 2.284026 V 4.8352802 H 33.06041 V 0.60000004 h 2.284026 z"
       id="text2"
       inkscape:label="MVHTypeLogo"
       aria-label="MVH" />
    <path
       d="m 38.043092,10.547756 q 0,0.255391 -0.139689,0.385203 -0.138278,0.128401 -0.386614,0.128401 H 37.236 v -1.007454 h 0.31042 q 0.152388,0 0.263857,0.05644 0.111469,0.05644 0.172142,0.166498 0.06067,0.108647 0.06067,0.270912 z m -0.134045,0.0042 q 0,-0.201773 -0.100181,-0.294899 -0.09877,-0.09454 -0.280789,-0.09454 H 37.36299 v 0.79016 h 0.136867 q 0.40919,0 0.40919,-0.400724 z m 0.632127,-0.261035 q 0.09736,0 0.166498,0.04233 0.07055,0.04233 0.107236,0.119935 0.0381,0.07619 0.0381,0.179197 v 0.07478 h -0.517837 q 0.0028,0.128401 0.06491,0.196129 0.0635,0.06632 0.176375,0.06632 0.07196,0 0.12699,-0.0127 0.05644,-0.01411 0.115702,-0.03951 v 0.108647 q -0.05785,0.0254 -0.114291,0.03669 -0.05644,0.0127 -0.134045,0.0127 -0.107236,0 -0.190485,-0.04374 -0.08184,-0.04374 -0.128401,-0.129812 -0.04515,-0.08748 -0.04515,-0.213061 0,-0.124168 0.04092,-0.213061 0.04233,-0.08889 0.117113,-0.136867 0.07619,-0.04797 0.176375,-0.04797 z m -0.0014,0.101592 q -0.08889,0 -0.1411,0.05785 -0.0508,0.05644 -0.06067,0.158032 h 0.385203 q -0.0014,-0.09595 -0.04515,-0.15521 -0.04374,-0.06067 -0.138278,-0.06067 z m 0.629305,-0.142511 q 0,0.04797 -0.0028,0.0903 -0.0014,0.04092 -0.0042,0.06491 h 0.0071 q 0.03245,-0.04797 0.08889,-0.08043 0.05644,-0.03245 0.145333,-0.03245 0.1411,0 0.22576,0.09877 0.08607,0.09736 0.08607,0.292077 0,0.194718 -0.08607,0.293488 -0.08607,0.09877 -0.22576,0.09877 -0.08889,0 -0.145333,-0.03245 -0.05644,-0.03245 -0.08889,-0.07761 h -0.0099 l -0.0254,0.09595 H 39.0449 V 9.9890003 h 0.124168 z m 0.213061,0.145333 q -0.119935,0 -0.166498,0.06914 -0.04656,0.06914 -0.04656,0.214472 v 0.0056 q 0,0.139689 0.04515,0.214472 0.04656,0.07337 0.170731,0.07337 0.101592,0 0.150977,-0.07478 0.0508,-0.07478 0.0508,-0.215883 0,-0.286433 -0.204595,-0.286433 z m 1.162663,-0.0903 V 11.06136 H 40.4432 l -0.01834,-0.100181 h -0.0056 q -0.03669,0.05926 -0.101592,0.08748 -0.06491,0.02681 -0.138278,0.02681 -0.136867,0 -0.206006,-0.06491 -0.06914,-0.06632 -0.06914,-0.210239 v -0.495261 h 0.125579 v 0.486795 q 0,0.180608 0.167909,0.180608 0.125579,0 0.173553,-0.07055 0.04938,-0.07055 0.04938,-0.203184 v -0.393669 z m 0.507961,-0.01411 q 0.07478,0 0.134045,0.02822 0.06067,0.02822 0.103003,0.08607 h 0.0071 l 0.01693,-0.100181 h 0.09877 v 0.768995 q 0,0.162265 -0.08325,0.244103 Q 41.247471,11.4 41.073918,11.4 q -0.166498,0 -0.272323,-0.04797 v -0.114291 q 0.111469,0.05926 0.279378,0.05926 0.09736,0 0.152388,-0.05785 0.05644,-0.05644 0.05644,-0.15521 v -0.02963 q 0,-0.01693 0.0014,-0.04797 0.0014,-0.03245 0.0028,-0.04515 h -0.0056 q -0.07619,0.114291 -0.234226,0.114291 -0.146744,0 -0.229993,-0.103003 -0.08184,-0.103003 -0.08184,-0.287844 0,-0.180608 0.08184,-0.286433 0.08325,-0.107236 0.228582,-0.107236 z m 0.01693,0.104414 q -0.09454,0 -0.146744,0.07619 -0.05221,0.07478 -0.05221,0.214472 0,0.139689 0.0508,0.214472 0.05221,0.07337 0.150977,0.07337 0.114291,0 0.166498,-0.06067 0.05221,-0.06208 0.05221,-0.198951 v -0.02963 q 0,-0.15521 -0.05362,-0.221527 -0.05362,-0.06773 -0.167909,-0.06773 z m 1.411,0.665992 -0.331585,-0.883286 h -0.0056 q 0.0042,0.04374 0.0071,0.118524 0.0028,0.07337 0.0028,0.153799 V 11.06136 H 42.03622 v -1.007454 h 0.187663 l 0.31042,0.825435 h 0.0056 l 0.316064,-0.825435 h 0.186252 v 1.007454 h -0.125579 v -0.619429 q 0,-0.07337 0.0028,-0.145333 0.0042,-0.07196 0.0071,-0.117113 h -0.0056 l -0.335818,0.881875 z m 1.110456,-0.770406 q 0.09736,0 0.166498,0.04233 0.07055,0.04233 0.107236,0.119935 0.0381,0.07619 0.0381,0.179197 v 0.07478 h -0.517837 q 0.0028,0.128401 0.06491,0.196129 0.0635,0.06632 0.176375,0.06632 0.07196,0 0.12699,-0.0127 0.05644,-0.01411 0.115702,-0.03951 v 0.108647 q -0.05785,0.0254 -0.114291,0.03669 -0.05644,0.0127 -0.134045,0.0127 -0.107236,0 -0.190485,-0.04374 -0.08184,-0.04374 -0.128401,-0.129812 -0.04515,-0.08748 -0.04515,-0.213061 0,-0.124168 0.04092,-0.213061 0.04233,-0.08889 0.117113,-0.136867 0.07619,-0.04797 0.176375,-0.04797 z m -0.0014,0.101592 q -0.08889,0 -0.1411,0.05785 -0.0508,0.05644 -0.06067,0.158032 h 0.385203 q -0.0014,-0.09595 -0.04515,-0.15521 -0.04374,-0.06067 -0.138278,-0.06067 z m 0.869175,-0.101592 q 0.135456,0 0.204595,0.06632 0.06914,0.06491 0.06914,0.21165 v 0.492439 h -0.122757 v -0.483973 q 0,-0.182019 -0.16932,-0.182019 -0.125579,0 -0.173553,0.07055 -0.04797,0.07055 -0.04797,0.203184 v 0.392258 h -0.124168 v -0.756296 h 0.100181 l 0.01834,0.103003 h 0.0071 q 0.03669,-0.05926 0.101592,-0.08748 0.06491,-0.02963 0.136867,-0.02963 z m 1.140088,0.01411 v 0.756296 h -0.101592 l -0.01834,-0.100181 h -0.0056 q -0.03669,0.05926 -0.101592,0.08748 -0.06491,0.02681 -0.138278,0.02681 -0.136867,0 -0.206006,-0.06491 -0.06914,-0.06632 -0.06914,-0.210239 v -0.495261 h 0.125579 v 0.486795 q 0,0.180608 0.167909,0.180608 0.125579,0 0.173553,-0.07055 0.04939,-0.07055 0.04939,-0.203184 v -0.393669 z"
       id="text1"
       style="font-size:1.411px;stroke-width:0"
       inkscape:label="DebugMenuText"
       aria-label="Debug Menu&#10;" />
  </g>
</svg>
